<svg width="32" height="32" viewBox="0 0 38 35" fill="none" xmlns="http://www.w3.org/2000/svg">
<path d="M35.8951 1.64585L1.39141 14.9563C0.539976 15.2847 0.547398 16.4902 1.40129 16.8102L9.80864 19.9481L13.0628 30.4134C13.271 31.0836 14.0906 31.3314 14.6346 30.8867L19.321 27.0662C19.8122 26.666 20.5119 26.646 21.0253 27.0187L29.4778 33.1554C30.0598 33.5784 30.8842 33.2595 31.0303 32.5564L37.2222 2.77197C37.3814 2.00373 36.6266 1.363 35.8951 1.64585ZM29.3194 8.58672L16.4221 20.5754C15.9688 20.9974 15.6764 21.5621 15.5936 22.175L15.1542 25.4308C15.096 25.8656 14.4853 25.9087 14.3654 25.488L12.6757 19.5509C12.4822 18.8737 12.7642 18.1504 13.3632 17.7807L28.9908 8.15573C29.2716 7.98325 29.5606 8.36302 29.3194 8.58672Z" fill="white"/>
<path d="M30.0589 34.1024C29.6958 34.1024 29.337 33.9887 29.0329 33.7676L20.5807 27.6311C20.3458 27.4605 20.0244 27.4695 19.7994 27.653L15.1132 31.4733C14.6637 31.8409 14.0623 31.9606 13.5056 31.7932C12.9485 31.6256 12.5128 31.1937 12.3402 30.6379L9.19632 20.5274L1.13683 17.5194C0.44949 17.2617 0.00358312 16.6219 2.06192e-05 15.8891C-0.00346766 15.1569 0.435908 14.5135 1.11924 14.2499L35.623 0.939394C36.2198 0.708871 36.8936 0.822797 37.3818 1.23664C37.8707 1.65108 38.0935 2.29819 37.9635 2.92549L31.7716 32.7102C31.6506 33.2928 31.2467 33.7691 30.691 33.984C30.4856 34.0634 30.2715 34.1024 30.0589 34.1024ZM20.2047 25.9954C20.6482 25.9954 21.0925 26.1316 21.4703 26.4059L29.9228 32.5427C30.0128 32.608 30.1007 32.589 30.1452 32.5718C30.1895 32.5548 30.267 32.51 30.2894 32.4023L36.4812 2.6177C36.5057 2.49955 36.4427 2.42526 36.403 2.39156C36.3636 2.35809 36.2807 2.30836 36.1685 2.35163C36.1683 2.3517 36.1681 2.35178 36.168 2.35185L1.66423 15.6625C1.53954 15.7106 1.51371 15.8082 1.51408 15.8818C1.51446 15.9559 1.54125 16.0541 1.66712 16.1013L10.0735 19.2389C10.2929 19.3208 10.4621 19.4997 10.5317 19.7233L13.7858 30.1886C13.818 30.2922 13.8972 30.33 13.9416 30.3434C13.9857 30.3566 14.0723 30.3689 14.1557 30.3006L18.8429 26.4794C19.2378 26.1575 19.7208 25.9954 20.2047 25.9954ZM14.751 26.5381C14.2326 26.5381 13.7822 26.2016 13.6378 25.6954L11.948 19.7579C11.6631 18.7605 12.0816 17.6822 12.966 17.1362L28.5942 7.5108C29.0484 7.23181 29.6329 7.34129 29.9545 7.765C30.2757 8.1882 30.2241 8.77994 29.8344 9.14139L16.9378 21.1296C16.6143 21.4308 16.4031 21.8382 16.344 22.2763L15.9046 25.5319C15.831 26.0821 15.3924 26.4949 14.8383 26.535C14.809 26.5371 14.7799 26.5381 14.751 26.5381ZM25.2093 11.3737L13.7605 18.425C13.451 18.616 13.3042 18.9936 13.4039 19.3428L14.6305 23.6528L14.8436 22.0736C14.9495 21.2894 15.3271 20.5605 15.9066 20.021L25.2093 11.3737Z" fill="white"/>
<path d="M31.4523 19.2027C31.3991 19.2027 31.3451 19.1971 31.2909 19.1853C30.8824 19.0966 30.623 18.6935 30.7117 18.285L30.8268 17.7551C30.9155 17.3465 31.3185 17.0871 31.7271 17.1759C32.1357 17.2645 32.395 17.6677 32.3063 18.0762L32.1913 18.6061C32.1144 18.9606 31.8007 19.2027 31.4523 19.2027Z" fill="white"/>
<path d="M29.0689 30.179C29.0157 30.179 28.9617 30.1734 28.9076 30.1616C28.4991 30.0729 28.2397 29.6698 28.3284 29.2613L30.0695 21.2419C30.1581 20.8333 30.5609 20.574 30.9699 20.6627C31.3784 20.7513 31.6378 21.1545 31.5491 21.563L29.808 29.5824C29.7309 29.937 29.4174 30.179 29.0689 30.179Z" fill="white"/>
</svg>
